
        <svg xmlns="http://www.w3.org/2000/svg" xmlns:xlink="http://www.w3.org/1999/xlink" version="1.1" width="2972.972972972974" height="3270.2702702702704" viewBox="0 0 2972.972972972974 3270.2702702702704">
			
			<g transform="scale(13.513513513513514) translate(10, 10)">
				<defs id="SvgjsDefs2154"/><g id="SvgjsG2155" featureKey="rootContainer" transform="matrix(1,0,0,1,0,19)" fill="#fff"><rect y="0" height="1" width="1" opacity="0"/><rect y="198" width="200" height="5"/></g><g id="SvgjsG2156" featureKey="symbolFeature-0" transform="matrix(20.21336172044761,0,0,20.21336172044761,49.523864345863004,3.466593289260482)" fill="#fff"><g xmlns="http://www.w3.org/2000/svg"><polygon points="2.557,4.281 1.014,3.392 1.013,1.61 2.555,0.719 3.985,1.544 3.761,1.934 2.555,1.238 1.463,1.87    1.464,3.132 2.557,3.762 3.761,3.065 3.986,3.455  "/><polygon points="2.557,3.433 1.748,2.967 1.748,2.034 2.555,1.568 3.251,1.969 3.025,2.358 2.556,2.088    2.198,2.294 2.198,2.707 2.557,2.913 3.025,2.642 3.251,3.03  "/></g></g><g id="SvgjsG2157" featureKey="nameFeature-0" transform="matrix(1.0656963695489492,0,0,1.0656963695489492,-0.9366405936717124,97.19918542589966)" fill="#fff"><path d="M7.1289 40.37109 c-1.9727 0 -4.1992 -0.54688 -6.25 -1.6602 l1.6797 -3.2813 c1.3086 0.87891 2.7734 1.3672 4.2383 1.3672 c2.8906 0 4.5508 -2.0117 4.5508 -5.5469 l0 -18.867 l3.9063 0 l0 19.57 c0 5.2734 -3.2617 8.418 -8.125 8.418 z M40.9133359375 40.37109 c-7.832 0 -13.809 -5.3906 -13.809 -14.199 c0 -8.7891 5.9766 -14.16 13.809 -14.16 c7.793 0 13.789 5.3711 13.789 14.16 c0 8.8086 -5.9961 14.199 -13.789 14.199 z M40.9133359375 36.7187 c5.5273 0 9.9023 -3.8281 9.9023 -10.547 c0 -6.6602 -4.375 -10.488 -9.9023 -10.488 c-5.5469 0 -9.9414 3.8281 -9.9414 10.488 c0 6.7188 4.3945 10.547 9.9414 10.547 z M75.615671875 40.37109 c-5.7617 0 -9.9805 -2.7539 -10.918 -7.4414 l3.9648 -0.9375 c0.625 3.2227 3.418 5.0781 7.0898 5.0781 c2.9492 0 5.7813 -1.2109 5.7227 -4.5313 c-0.039063 -3.2813 -3.5938 -4.1797 -7.3633 -5.2148 c-4.2773 -1.1719 -8.5547 -2.5195 -8.5547 -7.5977 c0 -5.1367 4.2383 -7.7148 9.2578 -7.7148 c4.8633 0 9.2383 2.0508 10.273 6.7969 l-3.7695 0.95703 c-0.68359 -3.0664 -3.2422 -4.4336 -6.3281 -4.4336 c-2.7734 0 -5.5273 1.2109 -5.5273 4.3555 c0 2.8516 3.0859 3.6914 6.582 4.6289 c4.3945 1.1914 9.4336 2.5586 9.4336 8.1055 c0 5.5859 -4.6875 7.9492 -9.8633 7.9492 z M115.1413828125 12.383 l3.8867 0 l0 27.617 l-3.8867 0 l0 -12.109 l-13.574 0 l0 12.109 l-3.9258 0 l0 -27.617 l3.9258 0 l0 12.051 l13.574 0 l0 -12.051 z M142.8124375 40.37109 c-5.7227 0 -10.156 -3.3789 -10.156 -9.6094 l0 -18.379 l3.8867 0 l0 17.832 c0 4.5508 2.7344 6.6406 6.2695 6.6406 s6.3281 -2.1094 6.3281 -6.6406 l0 -17.832 l3.8867 0 l0 18.379 c0 6.2305 -4.4531 9.6094 -10.215 9.6094 z M184.5065234375 40 l-2.3047 -6.4453 l-12.344 0 l-2.3047 6.4453 l-4.043 0 l10.176 -27.617 l4.6875 0 l10.176 27.617 l-4.043 0 z M171.0693234375 30.1562 l9.9219 0 l-4.9609 -13.926 z"/></g><g id="SvgjsG2158" featureKey="nameFeature-1" transform="matrix(1.2980460085768564,0,0,1.2980460085768564,-5.4504956554695605,133.92759436141458)" fill="#fff"><path d="M20.156 40 l-9.6875 -12.598 l-2.3828 0 l0 12.598 l-3.8867 0 l0 -27.617 l3.8867 0 l0 11.543 l2.3438 0 l9.4141 -11.543 l4.7656 0 l-10.82 13.164 l11.348 14.453 l-4.9805 0 z M51.1086484375 15.879000000000001 l-11.055 0 l0 8.5938 l9.7461 0 l0 3.4766 l-9.7461 0 l0 8.5352 l11.055 0 l0 3.5156 l-15.02 0 l0 -27.617 l15.02 0 l0 3.4961 z M67.353478125 36.4844 l9.4336 0 l0 3.5156 l-13.32 0 l0 -27.617 l3.8867 0 l0 24.102 z M91.7235953125 36.4844 l9.4336 0 l0 3.5156 l-13.32 0 l0 -27.617 l3.8867 0 l0 24.102 z M127.2268125 15.879000000000001 l-11.055 0 l0 8.5938 l9.7461 0 l0 3.4766 l-9.7461 0 l0 8.5352 l11.055 0 l0 3.5156 l-15.02 0 l0 -27.617 l15.02 0 l0 3.4961 z M158.2767421875 12.383 l-9.082 14.453 l0 13.164 l-3.9258 0 l0 -13.145 l-9.1016 -14.473 l4.4141 0 l6.6406 10.957 l6.6602 -10.957 l4.3945 0 z"/></g>
			</g>
		</svg>
	